<svg xmlns="http://www.w3.org/2000/svg" xmlns:xlink="http://www.w3.org/1999/xlink" width="407" height="73.854" viewBox="0 0 407 73.854"><defs><clipPath id="a"><rect width="407" height="73.854" fill="none"/></clipPath></defs><g clip-path="url(#a)"><path d="M28.919,17.97h-16.7V54.211h7.308V42.3h9.4c20.53,0,17.462-24.325,0-24.325m-.862,18.345H19.524V23.95h8.533c9.015,0,12.665,12.365,0,12.365M57.014,47.96V17.97H49.707V54.211H73.431l2.677-6.251Zm53.057,6.251H118.2L102.673,17.97H93.1L77.574,54.211h7.671L90,42.2h14.928ZM92.4,36.384,97.635,23.5l5.28,12.888ZM150.193,17.97V42.931h-.136c-.5-.725-1.135-1.495-2.405-3.08L129.5,17.97h-6.264V54.211H130V29.386h.182c.409.544.908,1.178,2.134,2.718l18.336,22.107h6.308V17.97ZM202.032,0l-19.8,47.552L177.722,36.4h-7.868l7.889,17.806H186.5L210.2,0Zm21.462,54.845c-11.483,0-19.471-7.973-19.471-19.072,0-10.69,7.988-18.437,19.471-18.437,11.438,0,19.426,7.747,19.426,18.437,0,11.1-7.988,19.072-19.426,19.072m0-6.478c7.172,0,12.073-5.345,12.073-12.547a12.073,12.073,0,0,0-24.147,0c0,7.2,4.948,12.547,12.073,12.547m34.268-.407V17.97h-7.307V54.211h27.232V47.96Zm32.861,0V17.97h-7.307V54.211h27.232V47.96Zm32.86.181V42.155h19.834V36.447H323.482V24.041h20.741V17.97H316.175V54.211h28.5v-6.07Zm57.778-4.6a15.108,15.108,0,0,0-2.9-3.852c3-1.811,5.9-4.689,5.9-9.672,0-7.249-5.628-12.05-14.524-12.05h-17.02V54.211h7.307V42.185h9.757c2,0,2.787.968,3.814,2.99l4.584,9.036h9.032Zm-21.241-7.158V24.267h8.85c4.9,0,7.827,2.539,7.806,6.614-.019,3.848-3.181,5.506-5.9,5.506Z" transform="translate(-5.117 0)" fill="#a84400" fill-rule="evenodd"/><path d="M93.956,105.116,90.9,115.35H90.88l-3.093-10.233H85.149l-3.172,10.249h-.016l-2.921-10.249H76.733l3.91,12.537H83.06L86.326,107.5h.016l3.3,10.154h2.637L96.2,105.116Zm4.82,2.257a1.107,1.107,0,1,0-1.256-1.1,1.114,1.114,0,0,0,1.256,1.1m1.005,1.5H97.757v8.776h2.025Zm4.523,1.207v-1.207h-1.822v8.776h2.026v-4.842a2.561,2.561,0,0,1,2.811-2.382,1.993,1.993,0,0,1,.471.047V108.6a4.219,4.219,0,0,0-3.485,1.489m14.24-1.426a3.863,3.863,0,0,0-3.077,1.363V104.8h-2.026v12.85h1.821v-1.489a3.708,3.708,0,0,0,3.234,1.709,4.459,4.459,0,0,0,4.444-4.655,4.341,4.341,0,0,0-4.4-4.56m-.22,7.538a2.86,2.86,0,0,1-2.857-2.993,2.8,2.8,0,0,1,2.889-2.867,2.685,2.685,0,0,1,2.654,2.9,2.765,2.765,0,0,1-2.686,2.961m13.86-7.318V110.3a3.833,3.833,0,0,0-3.279-1.645,4.341,4.341,0,0,0-4.394,4.56,4.46,4.46,0,0,0,4.441,4.655,3.671,3.671,0,0,0,3.232-1.724l-.017,1.5h1.84v-8.776Zm-3.06,7.318a2.763,2.763,0,0,1-2.682-2.961,2.683,2.683,0,0,1,2.652-2.9,2.8,2.8,0,0,1,2.887,2.867v.062a2.858,2.858,0,0,1-2.856,2.931m14.1-7.318v4.78a2.307,2.307,0,0,1-2.371,2.507,2.207,2.207,0,0,1-2.23-2.476v-4.811H136.6v5.313a3.516,3.516,0,0,0,3.784,3.667,3.8,3.8,0,0,0,3.077-1.41v1.206h1.79v-8.776Zm12.859,4a4.019,4.019,0,0,0-4.208-4.215A4.253,4.253,0,0,0,147.4,113.2c0,2.914,2.009,4.67,5.182,4.67a6.567,6.567,0,0,0,2.967-.675v-1.567a6.333,6.333,0,0,1-2.59.549c-2.135,0-3.344-.737-3.69-2.053l6.736-.031v-.016l.016.016c.031-.376.063-.972.063-1.223m-4.24-2.554a2.289,2.289,0,0,1,2.45,2.194h-5.04a2.57,2.57,0,0,1,2.59-2.194m11.289-1.645a3.783,3.783,0,0,0-3.187,1.411v-1.207h-1.79v8.776h2.026v-4.78a2.333,2.333,0,0,1,2.481-2.507,2.234,2.234,0,0,1,2.355,2.476v4.811h2.026v-5.312c.016-2.43-1.7-3.667-3.91-3.667m21.887,0a3.364,3.364,0,0,0-3.187,1.677,3.2,3.2,0,0,0-3.093-1.677,3.165,3.165,0,0,0-2.936,1.442v-1.238h-1.79v8.776h2.026v-4.921c0-2.053,1.177-2.382,2.1-2.382,1.224,0,2.151.6,2.151,2.571v4.732h2.026v-4.921c.016-2.068,1.193-2.382,2.088-2.382,1.256,0,2.2.6,2.2,2.571v4.732h2.01l.016-5.234c0-2.522-1.445-3.745-3.611-3.745m7.222-1.3a1.107,1.107,0,1,0-1.256-1.1,1.113,1.113,0,0,0,1.256,1.1m1.005,1.5h-2.026v8.776h2.026Zm8.824,1.865v-1.677h-3.408v-1.833h-1.4l-.44,1.833h-1.805v1.677h1.617v3.62c0,2.194,1.083,3.511,3.3,3.511a8.9,8.9,0,0,0,2.12-.314v-1.583a5.719,5.719,0,0,1-1.46.251c-1.3,0-1.932-.831-1.932-2.383v-3.1Zm16.046-5.626v5.2h-7.207v-5.2h-2.088v12.537h2.088v-5.516h7.207v5.516h2.088V105.116Zm13.283,7.757a4.019,4.019,0,0,0-4.208-4.215,4.253,4.253,0,0,0-4.474,4.545c0,2.914,2.009,4.67,5.181,4.67a6.568,6.568,0,0,0,2.968-.675v-1.567a6.333,6.333,0,0,1-2.59.549c-2.135,0-3.345-.737-3.69-2.053l6.736-.031v-.016l.015.016c.032-.376.063-.972.063-1.223m-4.24-2.554a2.289,2.289,0,0,1,2.449,2.194h-5.04a2.569,2.569,0,0,1,2.59-2.194m8.133-.235v-1.207h-1.821v8.776H235.5v-4.842a2.561,2.561,0,0,1,2.81-2.382,1.99,1.99,0,0,1,.471.047V108.6a4.219,4.219,0,0,0-3.486,1.489m7.443,5.955,5.354-6.206v-.956H239.88v1.614h5.338L239.88,116.7v.956h8.369v-1.614Zm18.417-7.162v4.78a2.307,2.307,0,0,1-2.371,2.507,2.206,2.206,0,0,1-2.229-2.476v-4.811h-2.026v5.313a3.516,3.516,0,0,0,3.783,3.667,3.8,3.8,0,0,0,3.078-1.41v1.206h1.79v-8.776Zm9.7-.2a3.784,3.784,0,0,0-3.187,1.411v-1.207h-1.79v8.776h2.025v-4.78a2.334,2.334,0,0,1,2.481-2.507,2.235,2.235,0,0,1,2.355,2.476v4.811h2.025v-5.312c.016-2.43-1.7-3.667-3.91-3.667m13.409-3.871v5.218a3.863,3.863,0,0,0-3.077-1.363,4.341,4.341,0,0,0-4.4,4.56,4.46,4.46,0,0,0,4.444,4.655,3.707,3.707,0,0,0,3.234-1.709v1.489h1.821V104.8ZM281.409,116.2a2.764,2.764,0,0,1-2.685-2.961,2.685,2.685,0,0,1,2.654-2.9,2.8,2.8,0,0,1,2.889,2.867,2.86,2.86,0,0,1-2.857,2.993m21.651-11.08-4.57,10.735-4.568-10.735h-2.387l5.573,12.537h2.7l5.574-12.537Zm10.739,7.757c0,.251-.032.846-.063,1.223l-.016-.016v.016l-6.736.031c.345,1.316,1.554,2.053,3.69,2.053a6.334,6.334,0,0,0,2.591-.549V117.2a6.568,6.568,0,0,1-2.968.675c-3.172,0-5.181-1.756-5.181-4.67a4.253,4.253,0,0,1,4.474-4.545,4.019,4.019,0,0,1,4.208,4.215m-4.239-2.554a2.569,2.569,0,0,0-2.59,2.194h5.04a2.289,2.289,0,0,0-2.449-2.194m8.132-.235v-1.207h-1.821v8.776H317.9v-4.842a2.56,2.56,0,0,1,2.81-2.382,1.984,1.984,0,0,1,.471.047V108.6a4.221,4.221,0,0,0-3.486,1.489m8.1,7.789c2.37,0,3.893-.972,3.893-2.822,0-1.912-1.774-2.428-3.109-2.68l-.769-.141c-1.226-.219-1.6-.485-1.6-.955,0-.69.816-.893,1.837-.893a9.087,9.087,0,0,1,3.14.611v-1.818a9.987,9.987,0,0,0-2.983-.517c-2.355,0-3.894.736-3.894,2.711,0,1.818,1.476,2.476,3.046,2.743l.911.157c1.256.22,1.522.548,1.522.94,0,.658-.8.972-2.01.972a7.355,7.355,0,0,1-3.375-.831v1.818a8.212,8.212,0,0,0,3.392.705m12.041-7.13v-1.677h-3.406v-1.833h-1.4l-.44,1.833h-1.806v1.677h1.618v3.62c0,2.194,1.084,3.511,3.3,3.511a8.9,8.9,0,0,0,2.12-.314v-1.583a5.732,5.732,0,0,1-1.461.251c-1.3,0-1.93-.831-1.93-2.383v-3.1Zm8.882-1.865V110.3a3.832,3.832,0,0,0-3.278-1.645,4.341,4.341,0,0,0-4.394,4.56,4.46,4.46,0,0,0,4.442,4.655,3.668,3.668,0,0,0,3.231-1.724l-.015,1.5h1.84v-8.776Zm-3.058,7.318a2.763,2.763,0,0,1-2.683-2.961,2.683,2.683,0,0,1,2.652-2.9,2.8,2.8,0,0,1,2.886,2.867v.062a2.858,2.858,0,0,1-2.855,2.931m12.563-7.522a3.785,3.785,0,0,0-3.188,1.411v-1.207h-1.79v8.776h2.026v-4.78a2.333,2.333,0,0,1,2.48-2.507,2.235,2.235,0,0,1,2.356,2.476v4.811h2.025v-5.312c.016-2.43-1.7-3.667-3.909-3.667m13.408-3.871v5.218a3.864,3.864,0,0,0-3.077-1.363,4.341,4.341,0,0,0-4.4,4.56,4.459,4.459,0,0,0,4.443,4.655,3.707,3.707,0,0,0,3.235-1.709v1.489h1.821V104.8ZM366.775,116.2a2.764,2.764,0,0,1-2.685-2.961,2.684,2.684,0,0,1,2.653-2.9,2.8,2.8,0,0,1,2.889,2.867,2.86,2.86,0,0,1-2.857,2.993" transform="translate(-32.144 -44.018)" fill="#f3efe6" fill-rule="evenodd"/><path d="M659.94,31.039a1,1,0,1,0,1.062,1,1.037,1.037,0,0,0-1.062-1m7.254-.057h-3.639v9.989h3.639c3.741,0,5.855-1.886,5.855-5.006,0-3.1-2.19-4.982-5.855-4.982m-.012,8.615h-1.989V32.356h1.989c2.589.012,4.14,1.348,4.165,3.608s-1.639,3.632-4.165,3.632m9.756-.024V36.6h5.692V35.252h-5.692V32.381h5.942v-1.4h-7.605v9.989h7.73v-1.4Z" transform="translate(-276.006 -13.013)" fill="#a84400" fill-rule="evenodd"/><path d="M387.528,67.746V36.7h1.66V69.4H347.595V67.746Zm0-45.023v-5H204.1l.724-1.657H389.187v6.661ZM0,16.062H188.476l-.69,1.657H1.659V67.746H37.99V69.4H0Z" transform="translate(0 -6.746)" fill="#a84400" fill-rule="evenodd"/></g></svg>